<svg width="615" height="566" viewBox="0 0 615 566" fill="none" xmlns="http://www.w3.org/2000/svg">
<path d="M242.458 1.55136C241.546 2.46332 240.895 4.54779 240.895 6.37171C240.895 10.8012 251.187 49.7548 252.881 51.709C255.226 54.5751 261.479 53.6632 263.694 50.2759C265.648 47.4098 265.388 45.7161 260.307 25.9136C257.31 14.1885 253.923 3.50556 252.881 2.20276C250.666 -0.402828 244.803 -0.793667 242.458 1.55136Z" fill="white"/>
<path d="M367.788 1.42101C366.224 1.94213 364.27 4.28716 363.488 6.76247C359.45 19.5299 352.936 44.6738 352.936 47.4097C352.936 53.5328 358.929 56.6595 363.879 53.0117C366.094 51.3181 377.689 13.0159 377.689 7.02303C377.689 2.46325 372.478 -0.402901 367.788 1.42101Z" fill="white"/>
<path d="M136.281 62.2614C131.591 67.3423 133.285 70.2085 150.742 87.6659C159.862 96.7855 168.33 104.211 169.633 104.211C172.499 104.211 177.059 99.6516 177.059 96.6552C177.059 95.3524 169.633 86.4934 160.513 77.1133C143.316 59.265 140.45 57.5713 136.281 62.2614Z" fill="white"/>
<path d="M456.899 79.0676C443.48 92.3561 440.223 96.2645 440.223 99.2609C440.223 104.081 445.043 107.338 449.473 105.645C453.121 104.212 482.433 74.7683 483.606 71.3811C484.648 68.5149 479.828 62.522 476.441 62.522C474.617 62.522 467.712 68.5149 456.899 79.0676Z" fill="white"/>
<path d="M302.647 68.2543C300.433 69.9479 300.172 71.7718 300.172 87.9265C300.172 104.081 300.433 105.905 302.647 107.599C304.081 108.641 306.165 109.423 307.337 109.423C308.51 109.423 310.594 108.641 312.028 107.599C314.242 105.905 314.503 104.081 314.503 87.9265C314.503 71.7718 314.242 69.9479 312.028 68.2543C310.594 67.212 308.51 66.4303 307.337 66.4303C306.165 66.4303 304.081 67.212 302.647 68.2543Z" fill="white"/>
<path d="M220.832 90.6623C217.445 93.9193 218.356 97.046 226.304 110.856C234.641 125.707 237.898 128.834 242.849 126.619C248.581 124.014 248.19 119.845 241.416 107.859C232.557 92.3559 229.561 88.5778 225.913 88.5778C224.219 88.5778 221.874 89.4898 220.832 90.6623Z" fill="white"/>
<path d="M382.51 92.7468C380.816 95.0918 376.647 101.997 373.26 107.859C366.485 119.845 366.094 124.014 371.827 126.619C376.777 128.834 380.034 125.707 388.502 110.856C396.319 97.046 397.231 93.9193 393.844 90.6623C390.457 87.275 386.027 88.187 382.51 92.7468Z" fill="white"/>
<path d="M64.8875 182.509C46.6483 184.073 23.9797 191.108 14.339 198.013C-0.122031 208.565 -0.773428 232.407 13.1665 242.699C22.9374 249.994 30.1028 250.385 46.1272 244.653C55.3771 241.526 60.7185 240.484 71.1409 239.963C84.0386 239.442 84.4294 239.442 87.6864 242.699C89.5103 244.523 91.0736 246.998 91.0736 248.17C91.0736 252.47 79.2182 262.631 55.1165 278.916C28.1486 297.025 17.0749 306.796 8.86726 319.433C1.83216 330.377 -0.643149 339.366 0.138528 351.221C1.18076 366.855 9.12782 376.887 23.3283 380.404C27.2367 381.316 45.3455 381.707 78.0457 381.446L126.901 381.055L133.154 377.408C142.143 372.066 146.312 365.161 146.833 354.348C147.485 344.577 145.009 338.063 138.365 332.07C131.2 325.296 127.682 324.384 109.964 324.384C100.975 324.384 93.6792 323.993 93.8095 323.342C93.8095 322.821 98.6299 319.042 104.623 314.873C125.728 300.152 140.189 283.085 145.921 266.149C148.266 258.853 148.657 255.596 148.136 243.48C147.615 230.583 147.224 228.628 142.795 219.9C135.238 204.396 122.08 192.802 105.144 186.548C98.6299 184.073 94.4609 183.291 79.9999 181.858C77.9154 181.597 71.0106 181.858 64.8875 182.509ZM101.496 200.488C123.253 209.347 134.978 227.065 133.805 249.343C132.633 272.663 120.126 287.645 79.2182 315.004C71.662 320.085 64.4966 325.166 63.1938 326.338C60.3277 329.204 60.5882 332.982 63.7149 336.109C66.1903 338.584 68.0142 338.715 94.3306 338.715C124.946 338.715 128.203 339.366 131.2 345.88C135.238 354.609 131.33 363.598 122.601 366.073C115.566 368.028 30.4937 367.637 24.7614 365.683C17.596 363.207 14.8601 358.257 14.8601 348.095C14.8601 328.944 26.0642 315.916 65.2783 289.469C99.9327 266.149 106.837 258.072 104.753 243.871C104.102 239.311 102.669 236.706 99.0207 233.058C92.5067 226.544 85.8625 224.981 68.9261 225.632C57.8524 226.153 52.9017 227.065 43.0005 230.452C33.4901 233.84 29.8423 234.491 26.8458 233.579C17.9868 231.104 14.4693 218.336 20.7227 211.692C24.2402 207.914 39.7435 201.661 52.6412 198.794C66.3205 195.798 91.9856 196.71 101.496 200.488Z" fill="white"/>
<path d="M223.698 182.51C190.346 186.157 167.287 208.175 157.255 246.216C154.65 255.857 154.259 260.547 154.259 282.694C154.259 312.007 156.344 322.56 165.333 340.669C179.533 369.461 201.42 383.01 233.86 383.14C257.05 383.27 272.944 377.017 287.796 362.165C302.517 347.313 311.116 326.338 314.112 297.546C316.848 270.969 311.767 241.135 301.084 220.812C295.091 209.608 282.063 196.189 271.511 190.587C257.962 183.552 241.156 180.686 223.698 182.51ZM258.222 200.488C277.894 208.175 291.574 226.935 297.827 254.554C300.563 267.061 300.563 298.328 297.827 310.835C291.574 338.454 277.894 357.214 258.222 364.771C249.103 368.418 229.17 369.721 218.878 367.506C195.558 362.556 178.621 343.796 171.065 314.613C167.678 301.585 167.678 263.804 171.065 250.776C178.361 222.636 193.734 204.787 216.142 198.404C225.652 195.798 248.972 196.971 258.222 200.488Z" fill="white"/>
<path d="M220.702 227.717C205.719 234.882 197.903 253.773 197.903 282.695C197.903 319.694 210.67 340.278 233.599 340.408C257.571 340.539 269.817 321.257 270.077 283.346C270.208 256.248 264.215 238.79 251.578 229.931C246.627 226.544 244.543 226.023 235.944 225.632C228.258 225.372 224.74 225.893 220.702 227.717ZM243.11 242.308C250.014 246.477 253.271 254.684 255.226 272.012C257.571 293.638 253.011 315.395 244.543 322.43C239.853 326.338 230.863 326.859 225.131 323.472C220.311 320.606 215.36 310.705 213.406 300.282C211.191 288.427 212.624 264.195 216.011 255.075C221.353 241.135 232.557 235.794 243.11 242.308Z" fill="white"/>
<path d="M378.21 182.509C360.362 183.812 336.39 191.238 326.619 198.403C311.507 209.608 313.07 235.533 329.355 244.653C338.344 249.734 344.858 249.734 359.189 244.783C370.523 240.744 373.259 240.353 385.896 240.353C398.403 240.353 400.227 240.614 401.921 242.829C407.393 250.385 401.269 256.769 368.83 278.265C339.908 297.416 325.968 310.704 318.281 326.208C313.591 335.848 313.2 337.412 313.2 347.704C313.2 360.862 315.806 366.985 324.404 374.281C332.742 381.446 336.911 381.967 391.368 381.446C435.403 381.055 439.962 380.795 444.131 378.58C455.075 372.718 460.286 364.249 460.286 352.264C460.286 342.362 455.726 333.894 447.779 328.553C442.698 325.296 441.265 325.035 424.199 324.384L405.959 323.732L420.29 313.049C428.237 307.187 438.008 298.719 442.047 294.159C450.906 284.518 459.244 268.364 461.198 257.29C465.367 234.882 455.205 210.129 436.315 196.189C420.811 184.724 403.354 180.685 378.21 182.509ZM408.305 198.794C429.149 204.136 443.61 219.378 446.867 239.572C450.776 264.325 436.836 284.388 396.97 311.747C385.636 319.433 375.865 326.989 375.083 328.292C373.39 331.419 375.083 335.327 378.992 337.412C380.425 338.193 392.801 338.715 409.347 338.715C435.533 338.715 437.487 338.845 440.614 341.32C445.695 345.359 447.258 352.394 444.392 358.256C439.962 367.376 438.92 367.506 385.506 367.116C351.242 366.855 337.172 366.334 335.218 365.161C326.359 360.08 324.795 346.01 331.7 332.201C338.084 319.303 349.809 308.49 377.689 289.86C410.259 268.233 418.075 260.026 418.075 247.519C418.075 239.442 414.428 233.188 407.523 229.28C402.181 226.283 400.618 226.023 384.854 226.153C369.09 226.153 367.136 226.414 355.802 230.452C342.513 235.142 339.126 235.142 333.915 229.931C329.876 225.892 329.616 216.903 333.263 212.083C336.26 208.305 352.415 201.66 365.312 198.925C377.559 196.189 398.534 196.189 408.305 198.794Z" fill="white"/>
<path d="M526.468 182.379C507.968 184.985 484.909 193.453 477.483 200.358C466.149 210.91 466.018 229.149 477.092 240.223C482.564 245.695 489.86 248.822 497.155 248.822C499.24 248.822 506.144 246.998 512.528 244.783C521.387 241.656 527.119 240.614 536.5 240.093C551.873 239.442 555.39 240.744 555.911 247.649C556.302 251.818 555.651 252.991 549.788 258.202C546.14 261.459 532.852 270.969 520.215 279.437C491.944 298.198 479.437 310.053 472.011 325.166C461.198 346.922 465.497 369.2 482.303 378.189C487.645 381.055 488.557 381.055 539.887 381.055H592.129L598.513 377.668C614.276 369.591 618.445 347.443 606.59 334.025C599.555 325.817 594.865 324.384 576.365 324.384C567.376 324.384 560.08 323.993 560.08 323.342C560.08 322.82 565.291 318.782 571.545 314.222C606.72 289.208 620.79 260.547 612.843 229.931C607.111 208.174 588.351 190.847 563.598 184.464C553.827 181.858 536.76 180.946 526.468 182.379ZM561.513 199.055C577.798 203.615 589.523 212.865 596.168 226.414C599.425 232.928 599.815 235.273 599.815 246.216C599.815 257.029 599.294 259.505 596.168 266.409C588.481 282.825 578.58 292.205 545.749 314.483C529.334 325.687 527.51 327.38 527.51 331.68C527.51 338.063 531.028 338.715 561.774 338.715H590.305L594.735 343.144C597.992 346.401 599.164 348.746 599.164 352.003C599.164 358.517 594.995 364.38 589.133 365.943C582.749 367.767 498.588 367.897 492.205 366.073C484.518 363.989 481.522 359.559 480.87 349.788C480.349 342.493 480.87 340.278 484.388 332.722C490.381 319.824 502.887 308.359 530.246 290.251C542.753 282.043 555.651 272.793 559.038 269.797C567.115 262.631 572.326 252.079 571.154 245.174C569.981 237.748 566.203 232.406 559.82 229.019C554.869 226.283 552.394 226.023 537.933 226.023C522.82 226.023 520.736 226.414 509.532 230.322C495.983 235.142 491.944 235.012 486.993 229.801C482.955 225.502 482.694 216.512 486.472 212.343C489.99 208.305 503.409 202.312 515.525 199.315C529.074 196.058 550.049 195.928 561.513 199.055Z" fill="white"/>
<path d="M235.944 439.942C232.296 443.069 218.747 466.91 218.747 470.167C218.747 473.684 222.135 476.811 225.913 476.811C227.867 476.811 230.212 475.248 232.166 472.512C237.117 465.868 247.409 447.238 247.409 444.893C247.409 442.417 242.849 437.727 240.374 437.727C239.331 437.727 237.377 438.769 235.944 439.942Z" fill="white"/>
<path d="M369.872 440.333C368.439 441.766 367.266 443.85 367.266 444.892C367.266 447.237 377.558 465.867 382.509 472.512C386.027 477.202 390.456 478.114 393.843 474.726C397.231 471.469 396.319 468.343 388.762 454.924C378.861 437.727 375.344 434.861 369.872 440.333Z" fill="white"/>
<path d="M302.647 457.79C300.433 459.484 300.172 461.308 300.172 477.462C300.172 493.617 300.433 495.441 302.647 497.135C304.081 498.177 306.165 498.959 307.337 498.959C308.51 498.959 310.594 498.177 312.028 497.135C314.242 495.441 314.503 493.617 314.503 477.462C314.503 461.308 314.242 459.484 312.028 457.79C310.594 456.748 308.51 455.966 307.337 455.966C306.165 455.966 304.081 456.748 302.647 457.79Z" fill="white"/>
<path d="M164.681 459.875C161.425 461.178 132.112 491.012 131.069 494.008C130.027 496.874 134.847 502.867 138.235 502.867C140.059 502.867 146.963 496.874 157.777 486.322C175.755 468.473 177.709 464.825 171.586 460.656C168.329 458.311 168.329 458.311 164.681 459.875Z" fill="white"/>
<path d="M440.223 463.783C438.79 465.216 437.618 467.431 437.618 468.734C437.618 471.86 468.233 503.909 472.272 504.951C476.441 505.994 480.61 502.346 480.61 497.786C480.61 495.181 476.832 490.621 463.934 477.723C454.815 468.603 446.346 461.178 445.044 461.178C443.871 461.178 441.656 462.35 440.223 463.783Z" fill="white"/>
<path d="M249.494 513.55C247.409 516.807 236.987 554.458 236.987 558.627C236.987 560.06 237.899 561.884 238.941 562.796C241.286 564.75 247.149 564.88 248.973 563.056C250.666 561.362 261.61 522.8 261.74 518.24C261.74 511.205 253.141 507.818 249.494 513.55Z" fill="white"/>
<path d="M350.982 515.113C349.028 517.979 349.288 519.673 354.369 539.475C357.365 551.201 360.753 561.884 361.795 563.056C364.01 565.792 369.872 566.183 372.217 563.838C373.129 562.926 373.781 560.841 373.781 559.017C373.781 554.588 363.489 515.634 361.795 513.55C359.45 510.814 353.196 511.726 350.982 515.113Z" fill="white"/>
</svg>
